<svg xmlns="http://www.w3.org/2000/svg" xmlns:xlink="http://www.w3.org/1999/xlink" viewBox="0 0 386.54 101.71"><defs><style>.cls-1{fill:none;}.cls-2{clip-path:url(#clip-path);}.cls-3{font-size:72px;font-family:Pristina-Regular, Pristina;}.cls-3,.cls-7{fill:#231f20;}.cls-4{letter-spacing:-0.05em;}.cls-5{letter-spacing:-0.05em;}.cls-6{letter-spacing:-0.05em;}</style><clipPath id="clip-path" transform="translate(0 0)"><rect class="cls-1" width="386.54" height="104.51"/></clipPath></defs><g id="Layer_2" data-name="Layer 2"><g id="Layer_1-2" data-name="Layer 1"><g id="Kight_Logo" data-name="Kight Logo"><g class="cls-2"><g class="cls-2"><text class="cls-3" transform="translate(12.41 61.11)"><tspan class="cls-4">J</tspan><tspan class="cls-5" x="27.79" y="0">ere</tspan><tspan class="cls-4" x="82" y="0">my </tspan><tspan class="cls-6" x="159.8" y="0">Ki</tspan><tspan class="cls-4" x="219.26" y="0">g</tspan><tspan class="cls-6" x="243.61" y="0">h</tspan><tspan x="270.17" y="0">t</tspan></text><path class="cls-7" d="M380,54.42l-17.26-16.3L335.33,12.24,329,6.29l-1.77,4.27,19.22-1.88L377,5.7,384,5c-.83-.84-1.67-1.67-2.5-2.5q-1,9.08-2,18.16Q378,35.13,376.41,49.59c-.24,2.2-.47,4.4-.71,6.6a2.51,2.51,0,0,0,2.5,2.5,2.56,2.56,0,0,0,2.5-2.5q1-9.07,2-18.16,1.56-14.46,3.13-28.92.34-3.3.71-6.6A2.5,2.5,0,0,0,384,0L364.79,1.89l-30.49,3-7,.69c-2,.2-3.47,2.66-1.76,4.27l17.25,16.3L370.13,52l6.3,6c2.34,2.21,5.88-1.32,3.54-3.54" transform="translate(0 0)"/><path class="cls-7" d="M314.34,71.19q2.6-10.59,5.2-21.19l8.22-33.51c.63-2.59,1.27-5.17,1.9-7.75l-4.18,1.1L342.7,26.17,370,52.1l6.28,6,1.11-4.18L355,58.7l-35.65,7.67-8.11,1.75c-3.14.67-1.81,5.49,1.33,4.82L335,68.12l35.65-7.68,8.11-1.74a2.52,2.52,0,0,0,1.1-4.18L362.64,38.19,335.3,12.26,329,6.3a2.53,2.53,0,0,0-4.18,1.11Q322.25,18,319.64,28.6l-8.22,33.51-1.9,7.75c-.77,3.13,4.05,4.46,4.82,1.33" transform="translate(0 0)"/><path class="cls-7" d="M382.23.74l-7.15,6.75L357.9,23.7,337,43.41l-18,17c-2.91,2.74-6,5.39-8.75,8.26l-.13.12c-2.34,2.21,1.2,5.74,3.54,3.53s4.76-4.5,7.15-6.74L338,49.33l20.89-19.7,18-17c2.9-2.75,6-5.39,8.75-8.26a.74.74,0,0,1,.13-.12c2.34-2.22-1.2-5.75-3.54-3.54" transform="translate(0 0)"/><line class="cls-7" x1="301.75" y1="99.18" x2="2.42" y2="99.18"/><path class="cls-7" d="M301.75,96.68H14.57c-3.88,0-7.77-.07-11.65,0h-.5c-3.22,0-3.23,5,0,5H289.6c3.88,0,7.76.07,11.64,0h.51c3.22,0,3.22-5,0-5" transform="translate(0 0)"/><path class="cls-7" d="M303.75,101.35c3.22,0,3.22-5,0-5s-3.22,5,0,5" transform="translate(0 0)"/><path class="cls-7" d="M312.48,67.16C306,66,300.53,71,299.24,77.1c-1.48,7,1.57,13.65,1.66,20.61,0,3.21,5,3.22,5,0-.07-5.88-2.39-11.53-2.07-17.42a9.82,9.82,0,0,1,2.23-6.14c1.27-1.38,3.15-2.53,5.09-2.17a2.56,2.56,0,0,0,3.07-1.75,2.51,2.51,0,0,0-1.74-3.07" transform="translate(0 0)"/></g></g></g></g></g></svg>